STARTFONT 2.1
FONT --Helv-Regular-R-Normal--16-240-96-48-P-163-WINDOWS-ANSI~2.0
SIZE 24 96 48
FONTBOUNDINGBOX 30 19 0 -4
METRICSSET 2
STARTPROPERTIES 20
FONT_ASCENT 12
PIXEL_SIZE 16
RESOLUTION_X 96
RESOLUTION_Y 48
POINT_SIZE 240
FACE_NAME "Helv 24"
COPYRIGHT "(c) Copyright Bitstream Inc. 1985. All rights reserved."
FOUNDRY ""
FAMILY_NAME "Helv"
WEIGHT_NAME "Regular"
RELATIVE_WEIGHT 50
SLANT "R"
SPACING "P"
SETWIDTH_NAME "Normal"
RELATIVE_SETWIDTH 50
ADD_STYLE_NAME ""
AVERAGE_WIDTH 163
DEFAULT_CHAR 128
CHARSET_REGISTRY "WINDOWS"
CHARSET_ENCODING "ANSI-2.0"
ENDPROPERTIES
CHARS 224
STARTCHAR space
ENCODING 32
SWIDTH 281 0
DWIDTH 9 0
BBX 0 0 9 15
VVECTOR 14 15
SWIDTH1 0 -1188
DWIDTH1 0 -19
BITMAP 
ENDCHAR
STARTCHAR exclam
ENCODING 33
SWIDTH 281 0
DWIDTH 9 0
BBX 3 12 3 0
VVECTOR 5 15
SWIDTH1 0 -1188
DWIDTH1 0 -19
BITMAP 
E0
E0
E0
E0
E0
E0
E0
E0
40
00
E0
E0
ENDCHAR
STARTCHAR quotedbl
ENCODING 34
SWIDTH 375 0
DWIDTH 12 0
BBX 8 5 2 7
VVECTOR 6 15
SWIDTH1 0 -1188
DWIDTH1 0 -19
BITMAP 
E7
E7
E7
E7
E7
ENDCHAR
STARTCHAR numbersign
ENCODING 35
SWIDTH 781 0
DWIDTH 25 0
BBX 22 12 2 0
VVECTOR 14 15
SWIDTH1 0 -1188
DWIDTH1 0 -19
BITMAP 
003060
0060C0
00C180
3FFFFC
018300
018300
030600
FFFFF0
060C00
0C1800
0C1800
183000
ENDCHAR
STARTCHAR dollar
ENCODING 36
SWIDTH 562 0
DWIDTH 18 0
BBX 16 14 1 -2
VVECTOR 9 15
SWIDTH1 0 -1188
DWIDTH1 0 -19
BITMAP 
0180
1FF8
799E
E186
E180
7D80
0FF8
019E
C187
E187
799E
1FF8
0180
0180
ENDCHAR
STARTCHAR percent
ENCODING 37
SWIDTH 844 0
DWIDTH 27 0
BBX 25 12 1 0
VVECTOR 14 15
SWIDTH1 0 -1188
DWIDTH1 0 -19
BITMAP 
3F801800
F1E07000
C060C000
C0618000
F1E70000
3F8C0000
0018FE00
0073C780
00C30180
01830180
0703C780
0C00FE00
ENDCHAR
STARTCHAR ampersand
ENCODING 38
SWIDTH 656 0
DWIDTH 21 0
BBX 19 12 2 0
VVECTOR 13 15
SWIDTH1 0 -1188
DWIDTH1 0 -19
BITMAP 
07F000
0E3800
1C1C00
0E3800
07F000
1FC000
78F180
E03B80
E01F00
E00F00
783B80
1FF1E0
ENDCHAR
STARTCHAR quotesingle
ENCODING 39
SWIDTH 281 0
DWIDTH 9 0
BBX 3 5 3 7
VVECTOR 5 15
SWIDTH1 0 -1188
DWIDTH1 0 -19
BITMAP 
E0
E0
E0
E0
E0
ENDCHAR
STARTCHAR parenleft
ENCODING 40
SWIDTH 344 0
DWIDTH 11 0
BBX 6 16 3 -4
VVECTOR 7 15
SWIDTH1 0 -1188
DWIDTH1 0 -19
BITMAP 
0C
18
38
70
70
E0
E0
E0
E0
E0
E0
70
70
38
18
0C
ENDCHAR
STARTCHAR parenright
ENCODING 41
SWIDTH 344 0
DWIDTH 11 0
BBX 6 16 2 -4
VVECTOR 5 15
SWIDTH1 0 -1188
DWIDTH1 0 -19
BITMAP 
C0
60
70
38
38
1C
1C
1C
1C
1C
1C
38
38
70
60
C0
ENDCHAR
STARTCHAR asterisk
ENCODING 42
SWIDTH 500 0
DWIDTH 16 0
BBX 10 6 3 6
VVECTOR 8 15
SWIDTH1 0 -1188
DWIDTH1 0 -19
BITMAP 
0C00
EDC0
3F00
3F00
EDC0
0C00
ENDCHAR
STARTCHAR plus
ENCODING 43
SWIDTH 594 0
DWIDTH 19 0
BBX 16 9 1 0
VVECTOR 9 15
SWIDTH1 0 -1188
DWIDTH1 0 -19
BITMAP 
0180
0180
0180
0180
FFFF
0180
0180
0180
0180
ENDCHAR
STARTCHAR comma
ENCODING 44
SWIDTH 281 0
DWIDTH 9 0
BBX 3 4 3 -2
VVECTOR 5 15
SWIDTH1 0 -1188
DWIDTH1 0 -19
BITMAP 
E0
E0
60
C0
ENDCHAR
STARTCHAR hyphen
ENCODING 45
SWIDTH 313 0
DWIDTH 10 0
BBX 8 1 1 4
VVECTOR 5 15
SWIDTH1 0 -1188
DWIDTH1 0 -19
BITMAP 
FF
ENDCHAR
STARTCHAR period
ENCODING 46
SWIDTH 281 0
DWIDTH 9 0
BBX 3 2 3 0
VVECTOR 5 15
SWIDTH1 0 -1188
DWIDTH1 0 -19
BITMAP 
E0
E0
ENDCHAR
STARTCHAR slash
ENCODING 47
SWIDTH 313 0
DWIDTH 10 0
BBX 10 14 0 -2
VVECTOR 5 15
SWIDTH1 0 -1188
DWIDTH1 0 -19
BITMAP 
00C0
0180
0180
0300
0300
0600
0C00
0C00
1800
3000
3000
6000
6000
C000
ENDCHAR
STARTCHAR zero
ENCODING 48
SWIDTH 562 0
DWIDTH 18 0
BBX 16 12 1 0
VVECTOR 9 15
SWIDTH1 0 -1188
DWIDTH1 0 -19
BITMAP 
0FF0
3C3C
700E
E007
E007
E007
E007
E007
E007
700E
3C3C
0FF0
ENDCHAR
STARTCHAR one
ENCODING 49
SWIDTH 562 0
DWIDTH 18 0
BBX 8 12 4 0
VVECTOR 7 15
SWIDTH1 0 -1188
DWIDTH1 0 -19
BITMAP 
03
0F
FF
07
07
07
07
07
07
07
07
07
ENDCHAR
STARTCHAR two
ENCODING 50
SWIDTH 562 0
DWIDTH 18 0
BBX 16 12 1 0
VVECTOR 9 15
SWIDTH1 0 -1188
DWIDTH1 0 -19
BITMAP 
0FF8
3C1E
7007
E007
001F
007C
03E0
0F00
3C00
7800
E000
FFFF
ENDCHAR
STARTCHAR three
ENCODING 51
SWIDTH 562 0
DWIDTH 18 0
BBX 16 12 1 0
VVECTOR 9 15
SWIDTH1 0 -1188
DWIDTH1 0 -19
BITMAP 
0FF0
3C3C
700E
000E
001E
03F8
001E
0007
E007
7007
3C3C
0FF0
ENDCHAR
STARTCHAR four
ENCODING 52
SWIDTH 562 0
DWIDTH 18 0
BBX 16 12 1 0
VVECTOR 9 15
SWIDTH1 0 -1188
DWIDTH1 0 -19
BITMAP 
0038
00F8
03B8
0638
1C38
3038
6038
FFFF
0038
0038
0038
0038
ENDCHAR
STARTCHAR five
ENCODING 53
SWIDTH 562 0
DWIDTH 18 0
BBX 16 12 1 0
VVECTOR 9 15
SWIDTH1 0 -1188
DWIDTH1 0 -19
BITMAP 
3FFE
3000
3000
6000
6FF8
781E
6007
0007
0007
E007
781E
1FF8
ENDCHAR
STARTCHAR six
ENCODING 54
SWIDTH 562 0
DWIDTH 18 0
BBX 16 12 1 0
VVECTOR 9 15
SWIDTH1 0 -1188
DWIDTH1 0 -19
BITMAP 
0FF8
3C1E
7007
6000
EFF8
F81E
F007
E007
E007
7007
7C1E
1FF8
ENDCHAR
STARTCHAR seven
ENCODING 55
SWIDTH 562 0
DWIDTH 18 0
BBX 16 12 1 0
VVECTOR 9 15
SWIDTH1 0 -1188
DWIDTH1 0 -19
BITMAP 
FFFF
000E
0038
0070
00E0
01C0
0380
0700
0700
0E00
0E00
0E00
ENDCHAR
STARTCHAR eight
ENCODING 56
SWIDTH 562 0
DWIDTH 18 0
BBX 16 12 1 0
VVECTOR 9 15
SWIDTH1 0 -1188
DWIDTH1 0 -19
BITMAP 
1FF8
781E
700E
700E
381C
1FF8
781E
E007
E007
E007
781E
1FF8
ENDCHAR
STARTCHAR nine
ENCODING 57
SWIDTH 562 0
DWIDTH 18 0
BBX 16 12 1 0
VVECTOR 9 15
SWIDTH1 0 -1188
DWIDTH1 0 -19
BITMAP 
1FF8
783E
E00E
E007
E007
E00F
781F
1FF7
0006
E00E
783C
1FF0
ENDCHAR
STARTCHAR colon
ENCODING 58
SWIDTH 281 0
DWIDTH 9 0
BBX 3 8 3 0
VVECTOR 5 15
SWIDTH1 0 -1188
DWIDTH1 0 -19
BITMAP 
E0
E0
00
00
00
00
E0
E0
ENDCHAR
STARTCHAR semicolon
ENCODING 59
SWIDTH 281 0
DWIDTH 9 0
BBX 3 10 3 -2
VVECTOR 5 15
SWIDTH1 0 -1188
DWIDTH1 0 -19
BITMAP 
E0
E0
00
00
00
00
E0
E0
60
C0
ENDCHAR
STARTCHAR less
ENCODING 60
SWIDTH 594 0
DWIDTH 19 0
BBX 16 8 1 0
VVECTOR 9 15
SWIDTH1 0 -1188
DWIDTH1 0 -19
BITMAP 
000F
01F8
1F00
F000
F000
1F00
01F8
000F
ENDCHAR
STARTCHAR equal
ENCODING 61
SWIDTH 594 0
DWIDTH 19 0
BBX 17 4 1 3
VVECTOR 10 15
SWIDTH1 0 -1188
DWIDTH1 0 -19
BITMAP 
FFFF80
000000
000000
FFFF80
ENDCHAR
STARTCHAR greater
ENCODING 62
SWIDTH 594 0
DWIDTH 19 0
BBX 16 8 1 0
VVECTOR 9 15
SWIDTH1 0 -1188
DWIDTH1 0 -19
BITMAP 
F000
1F80
00F8
000F
000F
00F8
1F80
F000
ENDCHAR
STARTCHAR question
ENCODING 63
SWIDTH 531 0
DWIDTH 17 0
BBX 14 12 1 0
VVECTOR 8 15
SWIDTH1 0 -1188
DWIDTH1 0 -19
BITMAP 
1FE0
7878
E01C
E01C
0038
0070
01C0
0380
0380
0000
0380
0380
ENDCHAR
STARTCHAR at
ENCODING 64
SWIDTH 1000 0
DWIDTH 32 0
BBX 28 14 2 -3
VVECTOR 16 15
SWIDTH1 0 -1188
DWIDTH1 0 -19
BITMAP 
007FF000
03C01F00
0E0001C0
18000060
301F9830
60707030
C0C03030
C1806060
C180E0C0
C1C1C380
607E7E00
3C000000
07801E00
00FFF000
ENDCHAR
STARTCHAR A
ENCODING 65
SWIDTH 656 0
DWIDTH 21 0
BBX 19 12 1 0
VVECTOR 11 15
SWIDTH1 0 -1188
DWIDTH1 0 -19
BITMAP 
00E000
01F000
03B800
071C00
071C00
0E0E00
1C0700
3FFF80
380380
7001C0
F001E0
E000E0
ENDCHAR
STARTCHAR B
ENCODING 66
SWIDTH 656 0
DWIDTH 21 0
BBX 17 12 3 0
VVECTOR 13 15
SWIDTH1 0 -1188
DWIDTH1 0 -19
BITMAP 
FFFC00
E00E00
E00700
E00700
E00E00
FFFC00
E00F00
E00380
E00380
E00380
E00F00
FFFC00
ENDCHAR
STARTCHAR C
ENCODING 67
SWIDTH 719 0
DWIDTH 23 0
BBX 21 12 2 0
VVECTOR 14 15
SWIDTH1 0 -1188
DWIDTH1 0 -19
BITMAP 
03FF00
1F03E0
7800F0
700000
F00000
E00000
E00000
F00000
700078
7800F0
1F03E0
03FF00
ENDCHAR
STARTCHAR D
ENCODING 68
SWIDTH 719 0
DWIDTH 23 0
BBX 19 12 3 0
VVECTOR 14 15
SWIDTH1 0 -1188
DWIDTH1 0 -19
BITMAP 
FFF800
E01F00
E003C0
E001C0
E001E0
E000E0
E000E0
E001E0
E001C0
E003C0
E01F00
FFF800
ENDCHAR
STARTCHAR E
ENCODING 69
SWIDTH 625 0
DWIDTH 20 0
BBX 16 12 3 0
VVECTOR 12 15
SWIDTH1 0 -1188
DWIDTH1 0 -19
BITMAP 
FFFF
E000
E000
E000
E000
FFFE
E000
E000
E000
E000
E000
FFFF
ENDCHAR
STARTCHAR F
ENCODING 70
SWIDTH 594 0
DWIDTH 19 0
BBX 15 12 3 0
VVECTOR 12 15
SWIDTH1 0 -1188
DWIDTH1 0 -19
BITMAP 
FFFE
E000
E000
E000
E000
FFF8
E000
E000
E000
E000
E000
E000
ENDCHAR
STARTCHAR G
ENCODING 71
SWIDTH 719 0
DWIDTH 23 0
BBX 20 12 2 0
VVECTOR 13 15
SWIDTH1 0 -1188
DWIDTH1 0 -19
BITMAP 
03FF00
1F03C0
7800E0
700000
F00000
E00000
E03FF0
F00070
700070
7800F0
1F03F0
03FE30
ENDCHAR
STARTCHAR H
ENCODING 72
SWIDTH 719 0
DWIDTH 23 0
BBX 18 12 3 0
VVECTOR 13 15
SWIDTH1 0 -1188
DWIDTH1 0 -19
BITMAP 
E001C0
E001C0
E001C0
E001C0
E001C0
FFFFC0
E001C0
E001C0
E001C0
E001C0
E001C0
E001C0
ENDCHAR
STARTCHAR I
ENCODING 73
SWIDTH 250 0
DWIDTH 8 0
BBX 3 12 3 0
VVECTOR 5 15
SWIDTH1 0 -1188
DWIDTH1 0 -19
BITMAP 
E0
E0
E0
E0
E0
E0
E0
E0
E0
E0
E0
E0
ENDCHAR
STARTCHAR J
ENCODING 74
SWIDTH 500 0
DWIDTH 16 0
BBX 13 12 1 0
VVECTOR 7 15
SWIDTH1 0 -1188
DWIDTH1 0 -19
BITMAP 
0038
0038
0038
0038
0038
0038
0038
0038
E038
E038
F078
3FE0
ENDCHAR
STARTCHAR K
ENCODING 75
SWIDTH 625 0
DWIDTH 20 0
BBX 16 12 3 0
VVECTOR 12 15
SWIDTH1 0 -1188
DWIDTH1 0 -19
BITMAP 
E007
E01E
E078
E1E0
E780
EFC0
FCE0
F070
E038
E01C
E00E
E007
ENDCHAR
STARTCHAR L
ENCODING 76
SWIDTH 531 0
DWIDTH 17 0
BBX 14 12 3 0
VVECTOR 12 15
SWIDTH1 0 -1188
DWIDTH1 0 -19
BITMAP 
E000
E000
E000
E000
E000
E000
E000
E000
E000
E000
E000
FFFC
ENDCHAR
STARTCHAR M
ENCODING 77
SWIDTH 844 0
DWIDTH 27 0
BBX 22 12 3 0
VVECTOR 15 15
SWIDTH1 0 -1188
DWIDTH1 0 -19
BITMAP 
F0003C
F8007C
FC00FC
EE01DC
E7039C
E3871C
E1CE1C
E0FC1C
E0781C
E0301C
E0001C
E0001C
ENDCHAR
STARTCHAR N
ENCODING 78
SWIDTH 719 0
DWIDTH 23 0
BBX 18 12 3 0
VVECTOR 13 15
SWIDTH1 0 -1188
DWIDTH1 0 -19
BITMAP 
F801C0
FC01C0
EE01C0
E701C0
E381C0
E1C1C0
E0E1C0
E071C0
E039C0
E01DC0
E00FC0
E007C0
ENDCHAR
STARTCHAR O
ENCODING 79
SWIDTH 781 0
DWIDTH 25 0
BBX 22 12 2 0
VVECTOR 14 15
SWIDTH1 0 -1188
DWIDTH1 0 -19
BITMAP 
03FF00
1F03E0
780078
700038
F0003C
E0001C
E0001C
F0003C
700038
780078
1F03E0
03FF00
ENDCHAR
STARTCHAR P
ENCODING 80
SWIDTH 625 0
DWIDTH 20 0
BBX 16 12 3 0
VVECTOR 12 15
SWIDTH1 0 -1188
DWIDTH1 0 -19
BITMAP 
FFF8
E01E
E007
E007
E01E
FFF8
E000
E000
E000
E000
E000
E000
ENDCHAR
STARTCHAR Q
ENCODING 81
SWIDTH 781 0
DWIDTH 25 0
BBX 22 13 2 -1
VVECTOR 14 15
SWIDTH1 0 -1188
DWIDTH1 0 -19
BITMAP 
03FF00
1F03E0
780078
700038
F0003C
E0001C
E0001C
F0003C
700638
7803F8
1F01E0
03FF70
000030
ENDCHAR
STARTCHAR R
ENCODING 82
SWIDTH 656 0
DWIDTH 21 0
BBX 17 12 3 0
VVECTOR 13 15
SWIDTH1 0 -1188
DWIDTH1 0 -19
BITMAP 
FFFE00
E00780
E00380
E00380
E00700
FFFE00
E00700
E00380
E00380
E00380
E00380
E00380
ENDCHAR
STARTCHAR S
ENCODING 83
SWIDTH 656 0
DWIDTH 21 0
BBX 18 12 2 0
VVECTOR 12 15
SWIDTH1 0 -1188
DWIDTH1 0 -19
BITMAP 
1FFC00
780F00
E00380
F00000
7F8000
0FFC00
007F80
E003C0
E001C0
7001C0
3C0780
0FFE00
ENDCHAR
STARTCHAR T
ENCODING 84
SWIDTH 562 0
DWIDTH 18 0
BBX 17 12 1 0
VVECTOR 10 15
SWIDTH1 0 -1188
DWIDTH1 0 -19
BITMAP 
FFFF80
01C000
01C000
01C000
01C000
01C000
01C000
01C000
01C000
01C000
01C000
01C000
ENDCHAR
STARTCHAR U
ENCODING 85
SWIDTH 719 0
DWIDTH 23 0
BBX 18 12 3 0
VVECTOR 13 15
SWIDTH1 0 -1188
DWIDTH1 0 -19
BITMAP 
E001C0
E001C0
E001C0
E001C0
E001C0
E001C0
E001C0
E001C0
E001C0
E001C0
780780
1FFE00
ENDCHAR
STARTCHAR V
ENCODING 86
SWIDTH 656 0
DWIDTH 21 0
BBX 19 12 1 0
VVECTOR 11 15
SWIDTH1 0 -1188
DWIDTH1 0 -19
BITMAP 
E000E0
7001C0
7001C0
380380
1C0700
1C0700
0E0E00
071C00
071C00
03B800
01F000
00E000
ENDCHAR
STARTCHAR W
ENCODING 87
SWIDTH 875 0
DWIDTH 28 0
BBX 28 12 0 0
VVECTOR 14 15
SWIDTH1 0 -1188
DWIDTH1 0 -19
BITMAP 
E0060070
700F00E0
700F00E0
381981C0
3839C1C0
1C30C380
1C70E380
0C606300
0EE07700
06C03600
07C03E00
03801C00
ENDCHAR
STARTCHAR X
ENCODING 88
SWIDTH 594 0
DWIDTH 19 0
BBX 17 12 1 0
VVECTOR 10 15
SWIDTH1 0 -1188
DWIDTH1 0 -19
BITMAP 
E00380
780F00
1C1C00
0F7800
03E000
01C000
07F000
0E3800
1C1C00
380E00
700700
E00380
ENDCHAR
STARTCHAR Y
ENCODING 89
SWIDTH 594 0
DWIDTH 19 0
BBX 17 12 1 0
VVECTOR 10 15
SWIDTH1 0 -1188
DWIDTH1 0 -19
BITMAP 
E00380
700700
380E00
1E3C00
077000
03E000
01C000
01C000
01C000
01C000
01C000
01C000
ENDCHAR
STARTCHAR Z
ENCODING 90
SWIDTH 594 0
DWIDTH 19 0
BBX 18 12 1 0
VVECTOR 11 15
SWIDTH1 0 -1188
DWIDTH1 0 -19
BITMAP 
7FFFC0
000380
000F00
001C00
007800
00E000
01C000
078000
0E0000
3C0000
700000
FFFFC0
ENDCHAR
STARTCHAR bracketleft
ENCODING 91
SWIDTH 344 0
DWIDTH 11 0
BBX 6 16 4 -4
VVECTOR 9 15
SWIDTH1 0 -1188
DWIDTH1 0 -19
BITMAP 
FC
E0
E0
E0
E0
E0
E0
E0
E0
E0
E0
E0
E0
E0
E0
FC
ENDCHAR
STARTCHAR backslash
ENCODING 92
SWIDTH 313 0
DWIDTH 10 0
BBX 10 14 0 -2
VVECTOR 5 15
SWIDTH1 0 -1188
DWIDTH1 0 -19
BITMAP 
C000
6000
6000
3000
3000
1800
0C00
0C00
0600
0300
0300
0180
0180
00C0
ENDCHAR
STARTCHAR bracketright
ENCODING 93
SWIDTH 344 0
DWIDTH 11 0
BBX 7 16 1 -4
VVECTOR 4 15
SWIDTH1 0 -1188
DWIDTH1 0 -19
BITMAP 
FE
1C
1C
1C
1C
1C
1C
1C
1C
1C
1C
1C
1C
1C
1C
FC
ENDCHAR
STARTCHAR asciicircum
ENCODING 94
SWIDTH 500 0
DWIDTH 16 0
BBX 16 4 0 8
VVECTOR 8 15
SWIDTH1 0 -1188
DWIDTH1 0 -19
BITMAP 
03C0
0E70
381C
E007
ENDCHAR
STARTCHAR underscore
ENCODING 95
SWIDTH 562 0
DWIDTH 18 0
BBX 18 1 0 -4
VVECTOR 9 15
SWIDTH1 0 -1188
DWIDTH1 0 -19
BITMAP 
FFFFC0
ENDCHAR
STARTCHAR grave
ENCODING 96
SWIDTH 500 0
DWIDTH 16 0
BBX 6 2 5 9
VVECTOR 8 15
SWIDTH1 0 -1188
DWIDTH1 0 -19
BITMAP 
F0
1C
ENDCHAR
STARTCHAR a
ENCODING 97
SWIDTH 531 0
DWIDTH 17 0
BBX 16 8 1 0
VVECTOR 10 15
SWIDTH1 0 -1188
DWIDTH1 0 -19
BITMAP 
3FF0
703C
001C
3FFC
F01C
E01C
F07C
3FCF
ENDCHAR
STARTCHAR b
ENCODING 98
SWIDTH 594 0
DWIDTH 19 0
BBX 16 12 2 0
VVECTOR 11 15
SWIDTH1 0 -1188
DWIDTH1 0 -19
BITMAP 
E000
E000
E000
E000
EFF8
F81E
E007
E007
E007
E007
F81E
EFF8
ENDCHAR
STARTCHAR c
ENCODING 99
SWIDTH 531 0
DWIDTH 17 0
BBX 15 8 1 0
VVECTOR 9 15
SWIDTH1 0 -1188
DWIDTH1 0 -19
BITMAP 
0FF0
781C
E00E
E000
E000
E00E
781C
0FF0
ENDCHAR
STARTCHAR d
ENCODING 100
SWIDTH 594 0
DWIDTH 19 0
BBX 16 12 1 0
VVECTOR 9 15
SWIDTH1 0 -1188
DWIDTH1 0 -19
BITMAP 
0007
0007
0007
0007
1FF7
781F
E007
E007
E007
E007
781F
1FF7
ENDCHAR
STARTCHAR e
ENCODING 101
SWIDTH 562 0
DWIDTH 18 0
BBX 16 8 1 0
VVECTOR 9 15
SWIDTH1 0 -1188
DWIDTH1 0 -19
BITMAP 
1FF8
780E
E007
FFFF
E000
E007
781E
1FF8
ENDCHAR
STARTCHAR f
ENCODING 102
SWIDTH 281 0
DWIDTH 9 0
BBX 9 12 0 0
VVECTOR 5 15
SWIDTH1 0 -1188
DWIDTH1 0 -19
BITMAP 
0F80
1C00
1C00
1C00
FF80
1C00
1C00
1C00
1C00
1C00
1C00
1C00
ENDCHAR
STARTCHAR g
ENCODING 103
SWIDTH 594 0
DWIDTH 19 0
BBX 16 12 1 -4
VVECTOR 9 15
SWIDTH1 0 -1188
DWIDTH1 0 -19
BITMAP 
1FF7
781F
E007
E007
E007
E007
781F
1FF7
0007
0007
781E
1FF8
ENDCHAR
STARTCHAR h
ENCODING 104
SWIDTH 562 0
DWIDTH 18 0
BBX 14 12 2 0
VVECTOR 9 15
SWIDTH1 0 -1188
DWIDTH1 0 -19
BITMAP 
E000
E000
E000
E000
EFE0
F878
E01C
E01C
E01C
E01C
E01C
E01C
ENDCHAR
STARTCHAR i
ENCODING 105
SWIDTH 219 0
DWIDTH 7 0
BBX 3 12 2 0
VVECTOR 4 15
SWIDTH1 0 -1188
DWIDTH1 0 -19
BITMAP 
E0
E0
00
00
E0
E0
E0
E0
E0
E0
E0
E0
ENDCHAR
STARTCHAR j
ENCODING 106
SWIDTH 219 0
DWIDTH 7 0
BBX 5 16 0 -4
VVECTOR 2 15
SWIDTH1 0 -1188
DWIDTH1 0 -19
BITMAP 
38
38
00
00
38
38
38
38
38
38
38
38
38
38
38
F0
ENDCHAR
STARTCHAR k
ENCODING 107
SWIDTH 531 0
DWIDTH 17 0
BBX 14 12 2 0
VVECTOR 10 15
SWIDTH1 0 -1188
DWIDTH1 0 -19
BITMAP 
E000
E000
E000
E000
E038
E0E0
E380
EF00
F9C0
E0E0
E038
E01C
ENDCHAR
STARTCHAR l
ENCODING 108
SWIDTH 219 0
DWIDTH 7 0
BBX 3 12 2 0
VVECTOR 4 15
SWIDTH1 0 -1188
DWIDTH1 0 -19
BITMAP 
E0
E0
E0
E0
E0
E0
E0
E0
E0
E0
E0
E0
ENDCHAR
STARTCHAR m
ENCODING 109
SWIDTH 844 0
DWIDTH 27 0
BBX 23 8 2 0
VVECTOR 14 15
SWIDTH1 0 -1188
DWIDTH1 0 -19
BITMAP 
EFE3F8
F87E1E
E0380E
E0380E
E0380E
E0380E
E0380E
E0380E
ENDCHAR
STARTCHAR n
ENCODING 110
SWIDTH 562 0
DWIDTH 18 0
BBX 14 8 2 0
VVECTOR 9 15
SWIDTH1 0 -1188
DWIDTH1 0 -19
BITMAP 
EFE0
F878
E01C
E01C
E01C
E01C
E01C
E01C
ENDCHAR
STARTCHAR o
ENCODING 111
SWIDTH 562 0
DWIDTH 18 0
BBX 16 8 1 0
VVECTOR 9 15
SWIDTH1 0 -1188
DWIDTH1 0 -19
BITMAP 
0FF0
781E
E007
E007
E007
E007
781E
0FF0
ENDCHAR
STARTCHAR p
ENCODING 112
SWIDTH 594 0
DWIDTH 19 0
BBX 16 12 2 -4
VVECTOR 11 15
SWIDTH1 0 -1188
DWIDTH1 0 -19
BITMAP 
EFF8
F81E
E007
E007
E007
E007
F81E
EFF8
E000
E000
E000
E000
ENDCHAR
STARTCHAR q
ENCODING 113
SWIDTH 594 0
DWIDTH 19 0
BBX 16 12 1 -4
VVECTOR 9 15
SWIDTH1 0 -1188
DWIDTH1 0 -19
BITMAP 
1FF7
781F
E007
E007
E007
E007
781F
1FF7
0007
0007
0007
0007
ENDCHAR
STARTCHAR r
ENCODING 114
SWIDTH 344 0
DWIDTH 11 0
BBX 9 8 2 0
VVECTOR 8 15
SWIDTH1 0 -1188
DWIDTH1 0 -19
BITMAP 
EF80
F800
E000
E000
E000
E000
E000
E000
ENDCHAR
STARTCHAR s
ENCODING 115
SWIDTH 500 0
DWIDTH 16 0
BBX 14 8 1 0
VVECTOR 8 15
SWIDTH1 0 -1188
DWIDTH1 0 -19
BITMAP 
1FF0
7038
7C00
1F80
03F0
E07C
781C
1FF0
ENDCHAR
STARTCHAR t
ENCODING 116
SWIDTH 281 0
DWIDTH 9 0
BBX 8 11 0 0
VVECTOR 4 15
SWIDTH1 0 -1188
DWIDTH1 0 -19
BITMAP 
38
38
38
FF
38
38
38
38
38
38
1F
ENDCHAR
STARTCHAR u
ENCODING 117
SWIDTH 562 0
DWIDTH 18 0
BBX 14 8 2 0
VVECTOR 9 15
SWIDTH1 0 -1188
DWIDTH1 0 -19
BITMAP 
E01C
E01C
E01C
E01C
E01C
E01C
787C
1FDC
ENDCHAR
STARTCHAR v
ENCODING 118
SWIDTH 469 0
DWIDTH 15 0
BBX 15 8 0 0
VVECTOR 8 15
SWIDTH1 0 -1188
DWIDTH1 0 -19
BITMAP 
E00E
701C
3838
1830
1C70
0EE0
07C0
0380
ENDCHAR
STARTCHAR w
ENCODING 119
SWIDTH 719 0
DWIDTH 23 0
BBX 23 8 0 0
VVECTOR 12 15
SWIDTH1 0 -1188
DWIDTH1 0 -19
BITMAP 
E0380E
707C1C
306C18
38C638
1CC670
0D8360
0F83E0
0701C0
ENDCHAR
STARTCHAR x
ENCODING 120
SWIDTH 469 0
DWIDTH 15 0
BBX 13 8 1 0
VVECTOR 8 15
SWIDTH1 0 -1188
DWIDTH1 0 -19
BITMAP 
E038
78F0
1DC0
0700
0F80
38E0
7070
E038
ENDCHAR
STARTCHAR y
ENCODING 121
SWIDTH 469 0
DWIDTH 15 0
BBX 15 12 0 -4
VVECTOR 8 15
SWIDTH1 0 -1188
DWIDTH1 0 -19
BITMAP 
E00E
701C
3838
1830
1C70
0EE0
07C0
0380
0380
0700
0E00
3800
ENDCHAR
STARTCHAR z
ENCODING 122
SWIDTH 469 0
DWIDTH 15 0
BBX 14 8 0 0
VVECTOR 7 15
SWIDTH1 0 -1188
DWIDTH1 0 -19
BITMAP 
7FFC
0078
01E0
0380
0F00
1C00
7800
FFFC
ENDCHAR
STARTCHAR braceleft
ENCODING 123
SWIDTH 344 0
DWIDTH 11 0
BBX 9 16 1 -4
VVECTOR 6 15
SWIDTH1 0 -1188
DWIDTH1 0 -19
BITMAP 
0780
0E00
1C00
1C00
1C00
1C00
3800
F000
3800
1C00
1C00
1C00
1C00
1C00
0E00
0780
ENDCHAR
STARTCHAR bar
ENCODING 124
SWIDTH 219 0
DWIDTH 7 0
BBX 3 16 2 -4
VVECTOR 4 15
SWIDTH1 0 -1188
DWIDTH1 0 -19
BITMAP 
E0
E0
E0
E0
E0
E0
E0
E0
E0
E0
E0
E0
E0
E0
E0
E0
ENDCHAR
STARTCHAR braceright
ENCODING 125
SWIDTH 344 0
DWIDTH 11 0
BBX 9 16 1 -4
VVECTOR 6 15
SWIDTH1 0 -1188
DWIDTH1 0 -19
BITMAP 
F000
3800
1C00
1C00
1C00
1C00
0E00
0780
0E00
1C00
1C00
1C00
1C00
1C00
3800
F000
ENDCHAR
STARTCHAR asciitilde
ENCODING 126
SWIDTH 500 0
DWIDTH 16 0
BBX 15 3 1 9
VVECTOR 9 15
SWIDTH1 0 -1188
DWIDTH1 0 -19
BITMAP 
1E06
739C
C0F0
ENDCHAR
STARTCHAR uni007F
ENCODING 127
SWIDTH 344 0
DWIDTH 11 0
BBX 5 12 3 0
VVECTOR 6 15
SWIDTH1 0 -1188
DWIDTH1 0 -19
BITMAP 
F8
F8
F8
F8
F8
F8
F8
F8
F8
F8
F8
F8
ENDCHAR
STARTCHAR char80
ENCODING 128
SWIDTH 344 0
DWIDTH 11 0
BBX 5 12 3 0
VVECTOR 6 15
SWIDTH1 0 -1188
DWIDTH1 0 -19
BITMAP 
F8
F8
F8
F8
F8
F8
F8
F8
F8
F8
F8
F8
ENDCHAR
STARTCHAR char81
ENCODING 129
SWIDTH 344 0
DWIDTH 11 0
BBX 5 12 3 0
VVECTOR 6 15
SWIDTH1 0 -1188
DWIDTH1 0 -19
BITMAP 
F8
F8
F8
F8
F8
F8
F8
F8
F8
F8
F8
F8
ENDCHAR
STARTCHAR char82
ENCODING 130
SWIDTH 344 0
DWIDTH 11 0
BBX 5 12 3 0
VVECTOR 6 15
SWIDTH1 0 -1188
DWIDTH1 0 -19
BITMAP 
F8
F8
F8
F8
F8
F8
F8
F8
F8
F8
F8
F8
ENDCHAR
STARTCHAR char83
ENCODING 131
SWIDTH 344 0
DWIDTH 11 0
BBX 5 12 3 0
VVECTOR 6 15
SWIDTH1 0 -1188
DWIDTH1 0 -19
BITMAP 
F8
F8
F8
F8
F8
F8
F8
F8
F8
F8
F8
F8
ENDCHAR
STARTCHAR char84
ENCODING 132
SWIDTH 344 0
DWIDTH 11 0
BBX 5 12 3 0
VVECTOR 6 15
SWIDTH1 0 -1188
DWIDTH1 0 -19
BITMAP 
F8
F8
F8
F8
F8
F8
F8
F8
F8
F8
F8
F8
ENDCHAR
STARTCHAR char85
ENCODING 133
SWIDTH 344 0
DWIDTH 11 0
BBX 5 12 3 0
VVECTOR 6 15
SWIDTH1 0 -1188
DWIDTH1 0 -19
BITMAP 
F8
F8
F8
F8
F8
F8
F8
F8
F8
F8
F8
F8
ENDCHAR
STARTCHAR char86
ENCODING 134
SWIDTH 344 0
DWIDTH 11 0
BBX 5 12 3 0
VVECTOR 6 15
SWIDTH1 0 -1188
DWIDTH1 0 -19
BITMAP 
F8
F8
F8
F8
F8
F8
F8
F8
F8
F8
F8
F8
ENDCHAR
STARTCHAR char87
ENCODING 135
SWIDTH 344 0
DWIDTH 11 0
BBX 5 12 3 0
VVECTOR 6 15
SWIDTH1 0 -1188
DWIDTH1 0 -19
BITMAP 
F8
F8
F8
F8
F8
F8
F8
F8
F8
F8
F8
F8
ENDCHAR
STARTCHAR char88
ENCODING 136
SWIDTH 344 0
DWIDTH 11 0
BBX 5 12 3 0
VVECTOR 6 15
SWIDTH1 0 -1188
DWIDTH1 0 -19
BITMAP 
F8
F8
F8
F8
F8
F8
F8
F8
F8
F8
F8
F8
ENDCHAR
STARTCHAR char89
ENCODING 137
SWIDTH 344 0
DWIDTH 11 0
BBX 5 12 3 0
VVECTOR 6 15
SWIDTH1 0 -1188
DWIDTH1 0 -19
BITMAP 
F8
F8
F8
F8
F8
F8
F8
F8
F8
F8
F8
F8
ENDCHAR
STARTCHAR char8A
ENCODING 138
SWIDTH 344 0
DWIDTH 11 0
BBX 5 12 3 0
VVECTOR 6 15
SWIDTH1 0 -1188
DWIDTH1 0 -19
BITMAP 
F8
F8
F8
F8
F8
F8
F8
F8
F8
F8
F8
F8
ENDCHAR
STARTCHAR char8B
ENCODING 139
SWIDTH 344 0
DWIDTH 11 0
BBX 5 12 3 0
VVECTOR 6 15
SWIDTH1 0 -1188
DWIDTH1 0 -19
BITMAP 
F8
F8
F8
F8
F8
F8
F8
F8
F8
F8
F8
F8
ENDCHAR
STARTCHAR char8C
ENCODING 140
SWIDTH 344 0
DWIDTH 11 0
BBX 5 12 3 0
VVECTOR 6 15
SWIDTH1 0 -1188
DWIDTH1 0 -19
BITMAP 
F8
F8
F8
F8
F8
F8
F8
F8
F8
F8
F8
F8
ENDCHAR
STARTCHAR char8D
ENCODING 141
SWIDTH 344 0
DWIDTH 11 0
BBX 5 12 3 0
VVECTOR 6 15
SWIDTH1 0 -1188
DWIDTH1 0 -19
BITMAP 
F8
F8
F8
F8
F8
F8
F8
F8
F8
F8
F8
F8
ENDCHAR
STARTCHAR char8E
ENCODING 142
SWIDTH 344 0
DWIDTH 11 0
BBX 5 12 3 0
VVECTOR 6 15
SWIDTH1 0 -1188
DWIDTH1 0 -19
BITMAP 
F8
F8
F8
F8
F8
F8
F8
F8
F8
F8
F8
F8
ENDCHAR
STARTCHAR char8F
ENCODING 143
SWIDTH 344 0
DWIDTH 11 0
BBX 5 12 3 0
VVECTOR 6 15
SWIDTH1 0 -1188
DWIDTH1 0 -19
BITMAP 
F8
F8
F8
F8
F8
F8
F8
F8
F8
F8
F8
F8
ENDCHAR
STARTCHAR char90
ENCODING 144
SWIDTH 344 0
DWIDTH 11 0
BBX 5 12 3 0
VVECTOR 6 15
SWIDTH1 0 -1188
DWIDTH1 0 -19
BITMAP 
F8
F8
F8
F8
F8
F8
F8
F8
F8
F8
F8
F8
ENDCHAR
STARTCHAR quoteleft
ENCODING 145
SWIDTH 281 0
DWIDTH 9 0
BBX 3 4 4 8
VVECTOR 7 15
SWIDTH1 0 -1188
DWIDTH1 0 -19
BITMAP 
60
C0
E0
E0
ENDCHAR
STARTCHAR quoteright
ENCODING 146
SWIDTH 281 0
DWIDTH 9 0
BBX 3 4 4 8
VVECTOR 7 15
SWIDTH1 0 -1188
DWIDTH1 0 -19
BITMAP 
E0
E0
60
C0
ENDCHAR
STARTCHAR char93
ENCODING 147
SWIDTH 344 0
DWIDTH 11 0
BBX 5 12 3 0
VVECTOR 6 15
SWIDTH1 0 -1188
DWIDTH1 0 -19
BITMAP 
F8
F8
F8
F8
F8
F8
F8
F8
F8
F8
F8
F8
ENDCHAR
STARTCHAR char94
ENCODING 148
SWIDTH 344 0
DWIDTH 11 0
BBX 5 12 3 0
VVECTOR 6 15
SWIDTH1 0 -1188
DWIDTH1 0 -19
BITMAP 
F8
F8
F8
F8
F8
F8
F8
F8
F8
F8
F8
F8
ENDCHAR
STARTCHAR char95
ENCODING 149
SWIDTH 344 0
DWIDTH 11 0
BBX 5 12 3 0
VVECTOR 6 15
SWIDTH1 0 -1188
DWIDTH1 0 -19
BITMAP 
F8
F8
F8
F8
F8
F8
F8
F8
F8
F8
F8
F8
ENDCHAR
STARTCHAR char96
ENCODING 150
SWIDTH 344 0
DWIDTH 11 0
BBX 5 12 3 0
VVECTOR 6 15
SWIDTH1 0 -1188
DWIDTH1 0 -19
BITMAP 
F8
F8
F8
F8
F8
F8
F8
F8
F8
F8
F8
F8
ENDCHAR
STARTCHAR char97
ENCODING 151
SWIDTH 344 0
DWIDTH 11 0
BBX 5 12 3 0
VVECTOR 6 15
SWIDTH1 0 -1188
DWIDTH1 0 -19
BITMAP 
F8
F8
F8
F8
F8
F8
F8
F8
F8
F8
F8
F8
ENDCHAR
STARTCHAR char98
ENCODING 152
SWIDTH 344 0
DWIDTH 11 0
BBX 5 12 3 0
VVECTOR 6 15
SWIDTH1 0 -1188
DWIDTH1 0 -19
BITMAP 
F8
F8
F8
F8
F8
F8
F8
F8
F8
F8
F8
F8
ENDCHAR
STARTCHAR char99
ENCODING 153
SWIDTH 344 0
DWIDTH 11 0
BBX 5 12 3 0
VVECTOR 6 15
SWIDTH1 0 -1188
DWIDTH1 0 -19
BITMAP 
F8
F8
F8
F8
F8
F8
F8
F8
F8
F8
F8
F8
ENDCHAR
STARTCHAR char9A
ENCODING 154
SWIDTH 344 0
DWIDTH 11 0
BBX 5 12 3 0
VVECTOR 6 15
SWIDTH1 0 -1188
DWIDTH1 0 -19
BITMAP 
F8
F8
F8
F8
F8
F8
F8
F8
F8
F8
F8
F8
ENDCHAR
STARTCHAR char9B
ENCODING 155
SWIDTH 344 0
DWIDTH 11 0
BBX 5 12 3 0
VVECTOR 6 15
SWIDTH1 0 -1188
DWIDTH1 0 -19
BITMAP 
F8
F8
F8
F8
F8
F8
F8
F8
F8
F8
F8
F8
ENDCHAR
STARTCHAR char9C
ENCODING 156
SWIDTH 344 0
DWIDTH 11 0
BBX 5 12 3 0
VVECTOR 6 15
SWIDTH1 0 -1188
DWIDTH1 0 -19
BITMAP 
F8
F8
F8
F8
F8
F8
F8
F8
F8
F8
F8
F8
ENDCHAR
STARTCHAR char9D
ENCODING 157
SWIDTH 344 0
DWIDTH 11 0
BBX 5 12 3 0
VVECTOR 6 15
SWIDTH1 0 -1188
DWIDTH1 0 -19
BITMAP 
F8
F8
F8
F8
F8
F8
F8
F8
F8
F8
F8
F8
ENDCHAR
STARTCHAR char9E
ENCODING 158
SWIDTH 344 0
DWIDTH 11 0
BBX 5 12 3 0
VVECTOR 6 15
SWIDTH1 0 -1188
DWIDTH1 0 -19
BITMAP 
F8
F8
F8
F8
F8
F8
F8
F8
F8
F8
F8
F8
ENDCHAR
STARTCHAR char9F
ENCODING 159
SWIDTH 344 0
DWIDTH 11 0
BBX 5 12 3 0
VVECTOR 6 15
SWIDTH1 0 -1188
DWIDTH1 0 -19
BITMAP 
F8
F8
F8
F8
F8
F8
F8
F8
F8
F8
F8
F8
ENDCHAR
STARTCHAR uni00A0
ENCODING 160
SWIDTH 281 0
DWIDTH 9 0
BBX 0 0 9 15
VVECTOR 14 15
SWIDTH1 0 -1188
DWIDTH1 0 -19
BITMAP 
ENDCHAR
STARTCHAR exclamdown
ENCODING 161
SWIDTH 281 0
DWIDTH 9 0
BBX 3 12 3 0
VVECTOR 5 15
SWIDTH1 0 -1188
DWIDTH1 0 -19
BITMAP 
E0
E0
00
40
E0
E0
E0
E0
E0
E0
E0
E0
ENDCHAR
STARTCHAR cent
ENCODING 162
SWIDTH 562 0
DWIDTH 18 0
BBX 15 12 2 -2
VVECTOR 10 15
SWIDTH1 0 -1188
DWIDTH1 0 -19
BITMAP 
0030
0020
1FF0
78DC
E08E
E180
E300
E20E
7E1C
0FF0
1800
1000
ENDCHAR
STARTCHAR sterling
ENCODING 163
SWIDTH 562 0
DWIDTH 18 0
BBX 17 12 0 0
VVECTOR 8 15
SWIDTH1 0 -1188
DWIDTH1 0 -19
BITMAP 
0FFC00
3C0F00
700380
700000
380000
FFF000
0E0000
0E0000
0E0000
1C0000
7FE380
607F00
ENDCHAR
STARTCHAR currency
ENCODING 164
SWIDTH 594 0
DWIDTH 19 0
BBX 15 9 2 3
VVECTOR 10 15
SWIDTH1 0 -1188
DWIDTH1 0 -19
BITMAP 
C006
6FEC
3838
600C
600C
600C
3838
6FEC
C006
ENDCHAR
STARTCHAR yen
ENCODING 165
SWIDTH 594 0
DWIDTH 19 0
BBX 17 12 1 0
VVECTOR 10 15
SWIDTH1 0 -1188
DWIDTH1 0 -19
BITMAP 
E00380
700700
380E00
1E3C00
FF7F80
03E000
FFFF80
01C000
01C000
01C000
01C000
01C000
ENDCHAR
STARTCHAR brokenbar
ENCODING 166
SWIDTH 219 0
DWIDTH 7 0
BBX 3 14 2 -3
VVECTOR 4 15
SWIDTH1 0 -1188
DWIDTH1 0 -19
BITMAP 
E0
E0
E0
E0
E0
E0
00
00
E0
E0
E0
E0
E0
E0
ENDCHAR
STARTCHAR section
ENCODING 167
SWIDTH 500 0
DWIDTH 16 0
BBX 14 14 1 -2
VVECTOR 8 15
SWIDTH1 0 -1188
DWIDTH1 0 -19
BITMAP 
1FE0
7870
7000
3C00
6FC0
E1F0
E038
701C
3E1C
0FD8
00F0
0038
7878
1FE0
ENDCHAR
STARTCHAR dieresis
ENCODING 168
SWIDTH 500 0
DWIDTH 16 0
BBX 8 2 4 9
VVECTOR 8 15
SWIDTH1 0 -1188
DWIDTH1 0 -19
BITMAP 
E7
E7
ENDCHAR
STARTCHAR copyright
ENCODING 169
SWIDTH 750 0
DWIDTH 24 0
BBX 22 12 1 0
VVECTOR 12 15
SWIDTH1 0 -1188
DWIDTH1 0 -19
BITMAP 
03FF00
0C00C0
31FC30
678F18
CE030C
CE000C
CE030C
C7870C
61FC18
300030
0C00C0
03FF00
ENDCHAR
STARTCHAR ordfeminine
ENCODING 170
SWIDTH 313 0
DWIDTH 10 0
BBX 9 8 1 4
VVECTOR 6 15
SWIDTH1 0 -1188
DWIDTH1 0 -19
BITMAP 
7E00
0300
7F00
C300
C300
7D80
0000
FF80
ENDCHAR
STARTCHAR guillemotleft
ENCODING 171
SWIDTH 438 0
DWIDTH 14 0
BBX 11 5 2 2
VVECTOR 8 15
SWIDTH1 0 -1188
DWIDTH1 0 -19
BITMAP 
38E0
71C0
E380
71C0
38E0
ENDCHAR
STARTCHAR logicalnot
ENCODING 172
SWIDTH 594 0
DWIDTH 19 0
BBX 17 4 1 2
VVECTOR 10 15
SWIDTH1 0 -1188
DWIDTH1 0 -19
BITMAP 
FFFF80
000180
000180
000180
ENDCHAR
STARTCHAR uni00AD
ENCODING 173
SWIDTH 313 0
DWIDTH 10 0
BBX 8 1 1 4
VVECTOR 5 15
SWIDTH1 0 -1188
DWIDTH1 0 -19
BITMAP 
FF
ENDCHAR
STARTCHAR registered
ENCODING 174
SWIDTH 750 0
DWIDTH 24 0
BBX 22 12 1 0
VVECTOR 12 15
SWIDTH1 0 -1188
DWIDTH1 0 -19
BITMAP 
03FF00
0C00C0
33FE30
638718
C3870C
C3FE0C
C38E0C
C3870C
638398
300030
0C00C0
03FF00
ENDCHAR
STARTCHAR macron
ENCODING 175
SWIDTH 500 0
DWIDTH 16 0
BBX 8 1 4 10
VVECTOR 8 15
SWIDTH1 0 -1188
DWIDTH1 0 -19
BITMAP 
FF
ENDCHAR
STARTCHAR degree
ENCODING 176
SWIDTH 344 0
DWIDTH 11 0
BBX 8 4 2 8
VVECTOR 7 15
SWIDTH1 0 -1188
DWIDTH1 0 -19
BITMAP 
7E
C3
C3
7E
ENDCHAR
STARTCHAR plusminus
ENCODING 177
SWIDTH 594 0
DWIDTH 19 0
BBX 16 9 1 0
VVECTOR 9 15
SWIDTH1 0 -1188
DWIDTH1 0 -19
BITMAP 
0180
0180
0180
FFFF
0180
0180
0180
0000
FFFF
ENDCHAR
STARTCHAR uni00B2
ENCODING 178
SWIDTH 313 0
DWIDTH 10 0
BBX 8 7 1 5
VVECTOR 5 15
SWIDTH1 0 -1188
DWIDTH1 0 -19
BITMAP 
7E
C3
03
1E
70
C0
FF
ENDCHAR
STARTCHAR uni00B3
ENCODING 179
SWIDTH 313 0
DWIDTH 10 0
BBX 8 7 1 5
VVECTOR 5 15
SWIDTH1 0 -1188
DWIDTH1 0 -19
BITMAP 
7E
C3
03
0E
03
C3
7E
ENDCHAR
STARTCHAR acute
ENCODING 180
SWIDTH 500 0
DWIDTH 16 0
BBX 6 2 6 9
VVECTOR 10 15
SWIDTH1 0 -1188
DWIDTH1 0 -19
BITMAP 
3C
E0
ENDCHAR
STARTCHAR mu
ENCODING 181
SWIDTH 500 0
DWIDTH 16 0
BBX 15 12 1 -4
VVECTOR 9 15
SWIDTH1 0 -1188
DWIDTH1 0 -19
BITMAP 
E070
E070
E070
E070
E070
E070
F0F2
EFBC
E000
E000
E000
E000
ENDCHAR
STARTCHAR paragraph
ENCODING 182
SWIDTH 500 0
DWIDTH 16 0
BBX 13 11 1 0
VVECTOR 7 15
SWIDTH1 0 -1188
DWIDTH1 0 -19
BITMAP 
1FF8
7E30
FE30
FE30
7E30
1E30
0630
0630
0630
0630
0630
ENDCHAR
STARTCHAR periodcentered
ENCODING 183
SWIDTH 281 0
DWIDTH 9 0
BBX 3 2 3 4
VVECTOR 5 15
SWIDTH1 0 -1188
DWIDTH1 0 -19
BITMAP 
E0
E0
ENDCHAR
STARTCHAR cedilla
ENCODING 184
SWIDTH 500 0
DWIDTH 16 0
BBX 6 4 6 -4
VVECTOR 10 15
SWIDTH1 0 -1188
DWIDTH1 0 -19
BITMAP 
60
78
0C
F8
ENDCHAR
STARTCHAR uni00B9
ENCODING 185
SWIDTH 313 0
DWIDTH 10 0
BBX 5 7 2 5
VVECTOR 4 15
SWIDTH1 0 -1188
DWIDTH1 0 -19
BITMAP 
18
F8
18
18
18
18
18
ENDCHAR
STARTCHAR ordmasculine
ENCODING 186
SWIDTH 313 0
DWIDTH 10 0
BBX 8 8 1 4
VVECTOR 5 15
SWIDTH1 0 -1188
DWIDTH1 0 -19
BITMAP 
7E
C3
C3
C3
C3
7E
00
FF
ENDCHAR
STARTCHAR guillemotright
ENCODING 187
SWIDTH 438 0
DWIDTH 14 0
BBX 11 5 2 2
VVECTOR 8 15
SWIDTH1 0 -1188
DWIDTH1 0 -19
BITMAP 
E380
71C0
38E0
71C0
E380
ENDCHAR
STARTCHAR onequarter
ENCODING 188
SWIDTH 844 0
DWIDTH 27 0
BBX 24 12 2 0
VVECTOR 15 15
SWIDTH1 0 -1188
DWIDTH1 0 -19
BITMAP 
180030
F800E0
180180
180300
180E00
18181C
18302C
00E04C
01808C
0301FF
0E000C
18000C
ENDCHAR
STARTCHAR onehalf
ENCODING 189
SWIDTH 844 0
DWIDTH 27 0
BBX 24 12 2 0
VVECTOR 15 15
SWIDTH1 0 -1188
DWIDTH1 0 -19
BITMAP 
180030
F800E0
180180
180300
180E00
18187E
1830C3
00E003
01801E
030070
0E00C0
1800FF
ENDCHAR
STARTCHAR threequarters
ENCODING 190
SWIDTH 844 0
DWIDTH 27 0
BBX 26 12 1 0
VVECTOR 15 15
SWIDTH1 0 -1188
DWIDTH1 0 -19
BITMAP 
7E000C00
C3003800
03006000
0E00C000
03038000
C3060700
7E0C0B00
00381300
00602300
00C07FC0
03800300
06000300
ENDCHAR
STARTCHAR questiondown
ENCODING 191
SWIDTH 531 0
DWIDTH 17 0
BBX 14 12 2 0
VVECTOR 10 15
SWIDTH1 0 -1188
DWIDTH1 0 -19
BITMAP 
0700
0700
0000
0700
0700
0E00
3800
7000
E01C
E01C
7878
1FE0
ENDCHAR
STARTCHAR Agrave
ENCODING 192
SWIDTH 656 0
DWIDTH 21 0
BBX 19 15 1 0
VVECTOR 11 15
SWIDTH1 0 -1188
DWIDTH1 0 -19
BITMAP 
078000
00E000
000000
00E000
01F000
03B800
071C00
071C00
0E0E00
1C0700
3FFF80
380380
7001C0
F001E0
E000E0
ENDCHAR
STARTCHAR Aacute
ENCODING 193
SWIDTH 656 0
DWIDTH 21 0
BBX 19 15 1 0
VVECTOR 11 15
SWIDTH1 0 -1188
DWIDTH1 0 -19
BITMAP 
003C00
00E000
000000
00E000
01F000
03B800
071C00
071C00
0E0E00
1C0700
3FFF80
380380
7001C0
F001E0
E000E0
ENDCHAR
STARTCHAR Acircumflex
ENCODING 194
SWIDTH 656 0
DWIDTH 21 0
BBX 19 15 1 0
VVECTOR 11 15
SWIDTH1 0 -1188
DWIDTH1 0 -19
BITMAP 
01F000
071C00
000000
00E000
01F000
03B800
071C00
071C00
0E0E00
1C0700
3FFF80
380380
7001C0
F001E0
E000E0
ENDCHAR
STARTCHAR Atilde
ENCODING 195
SWIDTH 656 0
DWIDTH 21 0
BBX 19 15 1 0
VVECTOR 11 15
SWIDTH1 0 -1188
DWIDTH1 0 -19
BITMAP 
03CC00
067800
000000
00E000
01F000
03B800
071C00
071C00
0E0E00
1C0700
3FFF80
380380
7001C0
F001E0
E000E0
ENDCHAR
STARTCHAR Adieresis
ENCODING 196
SWIDTH 656 0
DWIDTH 21 0
BBX 19 15 1 0
VVECTOR 11 15
SWIDTH1 0 -1188
DWIDTH1 0 -19
BITMAP 
071C00
071C00
000000
00E000
01F000
03B800
071C00
071C00
0E0E00
1C0700
3FFF80
380380
7001C0
F001E0
E000E0
ENDCHAR
STARTCHAR Aring
ENCODING 197
SWIDTH 656 0
DWIDTH 21 0
BBX 19 15 1 0
VVECTOR 11 15
SWIDTH1 0 -1188
DWIDTH1 0 -19
BITMAP 
01F000
031800
031800
01F000
01F000
03B800
071C00
071C00
0E0E00
1C0700
3FFF80
380380
7001C0
F001E0
E000E0
ENDCHAR
STARTCHAR AE
ENCODING 198
SWIDTH 969 0
DWIDTH 31 0
BBX 29 12 1 0
VVECTOR 16 15
SWIDTH1 0 -1188
DWIDTH1 0 -19
BITMAP 
00FFFFF8
01C70000
03870000
07070000
07070000
0E07FFF0
1C070000
3FFF0000
38070000
70070000
F0070000
E007FFF8
ENDCHAR
STARTCHAR Ccedilla
ENCODING 199
SWIDTH 719 0
DWIDTH 23 0
BBX 21 16 2 -4
VVECTOR 14 15
SWIDTH1 0 -1188
DWIDTH1 0 -19
BITMAP 
03FF00
1F03E0
7800F0
700000
F00000
E00000
E00000
F00000
700078
7800F0
1F03E0
03FF00
003000
003C00
000600
007C00
ENDCHAR
STARTCHAR Egrave
ENCODING 200
SWIDTH 625 0
DWIDTH 20 0
BBX 16 15 3 0
VVECTOR 12 15
SWIDTH1 0 -1188
DWIDTH1 0 -19
BITMAP 
03C0
0E70
0000
FFFF
E000
E000
E000
E000
FFFE
E000
E000
E000
E000
E000
FFFF
ENDCHAR
STARTCHAR Eacute
ENCODING 201
SWIDTH 625 0
DWIDTH 20 0
BBX 16 15 3 0
VVECTOR 12 15
SWIDTH1 0 -1188
DWIDTH1 0 -19
BITMAP 
00F0
0380
0000
FFFF
E000
E000
E000
E000
FFFE
E000
E000
E000
E000
E000
FFFF
ENDCHAR
STARTCHAR Ecircumflex
ENCODING 202
SWIDTH 625 0
DWIDTH 20 0
BBX 16 15 3 0
VVECTOR 12 15
SWIDTH1 0 -1188
DWIDTH1 0 -19
BITMAP 
03C0
0E70
0000
FFFF
E000
E000
E000
E000
FFFE
E000
E000
E000
E000
E000
FFFF
ENDCHAR
STARTCHAR Edieresis
ENCODING 203
SWIDTH 625 0
DWIDTH 20 0
BBX 16 15 3 0
VVECTOR 12 15
SWIDTH1 0 -1188
DWIDTH1 0 -19
BITMAP 
0E70
0E70
0000
FFFF
E000
E000
E000
E000
FFFE
E000
E000
E000
E000
E000
FFFF
ENDCHAR
STARTCHAR Igrave
ENCODING 204
SWIDTH 250 0
DWIDTH 8 0
BBX 6 15 1 0
VVECTOR 4 15
SWIDTH1 0 -1188
DWIDTH1 0 -19
BITMAP 
F0
1C
00
38
38
38
38
38
38
38
38
38
38
38
38
ENDCHAR
STARTCHAR Iacute
ENCODING 205
SWIDTH 250 0
DWIDTH 8 0
BBX 6 15 2 0
VVECTOR 6 15
SWIDTH1 0 -1188
DWIDTH1 0 -19
BITMAP 
3C
E0
00
70
70
70
70
70
70
70
70
70
70
70
70
ENDCHAR
STARTCHAR Icircumflex
ENCODING 206
SWIDTH 250 0
DWIDTH 8 0
BBX 7 15 1 0
VVECTOR 5 15
SWIDTH1 0 -1188
DWIDTH1 0 -19
BITMAP 
38
EE
00
38
38
38
38
38
38
38
38
38
38
38
38
ENDCHAR
STARTCHAR Idieresis
ENCODING 207
SWIDTH 250 0
DWIDTH 8 0
BBX 7 15 1 0
VVECTOR 5 15
SWIDTH1 0 -1188
DWIDTH1 0 -19
BITMAP 
EE
EE
00
38
38
38
38
38
38
38
38
38
38
38
38
ENDCHAR
STARTCHAR Eth
ENCODING 208
SWIDTH 719 0
DWIDTH 23 0
BBX 22 12 0 0
VVECTOR 11 15
SWIDTH1 0 -1188
DWIDTH1 0 -19
BITMAP 
1FFF00
1C03E0
1C0078
1C0038
1C003C
FFE01C
1C001C
1C003C
1C0038
1C0078
1C03E0
1FFF00
ENDCHAR
STARTCHAR Ntilde
ENCODING 209
SWIDTH 719 0
DWIDTH 23 0
BBX 18 15 3 0
VVECTOR 13 15
SWIDTH1 0 -1188
DWIDTH1 0 -19
BITMAP 
03CC00
067800
000000
F001C0
F801C0
EE01C0
E701C0
E381C0
E1C1C0
E0E1C0
E071C0
E039C0
E01DC0
E00FC0
E003C0
ENDCHAR
STARTCHAR Ograve
ENCODING 210
SWIDTH 781 0
DWIDTH 25 0
BBX 22 15 2 0
VVECTOR 14 15
SWIDTH1 0 -1188
DWIDTH1 0 -19
BITMAP 
01E000
003800
000000
03FF00
1F03E0
780078
700038
F0003C
E0001C
E0001C
F0003C
700038
780078
1F03E0
03FF00
ENDCHAR
STARTCHAR Oacute
ENCODING 211
SWIDTH 781 0
DWIDTH 25 0
BBX 22 15 2 0
VVECTOR 14 15
SWIDTH1 0 -1188
DWIDTH1 0 -19
BITMAP 
001E00
007000
000000
03FF00
1F03E0
780078
700038
F0003C
E0001C
E0001C
F0003C
700038
780078
1F03E0
03FF00
ENDCHAR
STARTCHAR Ocircumflex
ENCODING 212
SWIDTH 781 0
DWIDTH 25 0
BBX 22 15 2 0
VVECTOR 14 15
SWIDTH1 0 -1188
DWIDTH1 0 -19
BITMAP 
007800
01CE00
000000
03FF00
1F03E0
780078
700038
F0003C
E0001C
E0001C
F0003C
700038
780078
1F03E0
03FF00
ENDCHAR
STARTCHAR Otilde
ENCODING 213
SWIDTH 781 0
DWIDTH 25 0
BBX 22 15 2 0
VVECTOR 14 15
SWIDTH1 0 -1188
DWIDTH1 0 -19
BITMAP 
00F300
019E00
000000
03FF00
1F03E0
780078
700038
F0003C
E0001C
E0001C
F0003C
700038
780078
1F03E0
03FF00
ENDCHAR
STARTCHAR Odieresis
ENCODING 214
SWIDTH 781 0
DWIDTH 25 0
BBX 22 15 2 0
VVECTOR 14 15
SWIDTH1 0 -1188
DWIDTH1 0 -19
BITMAP 
01CE00
01CE00
000000
03FF00
1F03E0
780078
700038
F0003C
E0001C
E0001C
F0003C
700038
780078
1F03E0
03FF00
ENDCHAR
STARTCHAR multiply
ENCODING 215
SWIDTH 469 0
DWIDTH 15 0
BBX 11 9 2 0
VVECTOR 8 15
SWIDTH1 0 -1188
DWIDTH1 0 -19
BITMAP 
C060
60C0
3180
1F00
0E00
1F00
3180
60C0
C060
ENDCHAR
STARTCHAR Oslash
ENCODING 216
SWIDTH 781 0
DWIDTH 25 0
BBX 22 12 2 0
VVECTOR 14 15
SWIDTH1 0 -1188
DWIDTH1 0 -19
BITMAP 
03FF0C
1F03F8
7800F0
7003B8
F00E3C
E0381C
E0E01C
F3803C
7E0038
3C0078
7F03E0
C3FF00
ENDCHAR
STARTCHAR Ugrave
ENCODING 217
SWIDTH 719 0
DWIDTH 23 0
BBX 18 15 3 0
VVECTOR 13 15
SWIDTH1 0 -1188
DWIDTH1 0 -19
BITMAP 
078000
00E000
000000
E001C0
E001C0
E001C0
E001C0
E001C0
E001C0
E001C0
E001C0
E001C0
E001C0
780780
1FFE00
ENDCHAR
STARTCHAR Uacute
ENCODING 218
SWIDTH 719 0
DWIDTH 23 0
BBX 18 15 3 0
VVECTOR 13 15
SWIDTH1 0 -1188
DWIDTH1 0 -19
BITMAP 
007800
01C000
000000
E001C0
E001C0
E001C0
E001C0
E001C0
E001C0
E001C0
E001C0
E001C0
E001C0
780780
1FFE00
ENDCHAR
STARTCHAR Ucircumflex
ENCODING 219
SWIDTH 719 0
DWIDTH 23 0
BBX 18 15 3 0
VVECTOR 13 15
SWIDTH1 0 -1188
DWIDTH1 0 -19
BITMAP 
01E000
073800
000000
E001C0
E001C0
E001C0
E001C0
E001C0
E001C0
E001C0
E001C0
E001C0
E001C0
780780
1FFE00
ENDCHAR
STARTCHAR Udieresis
ENCODING 220
SWIDTH 719 0
DWIDTH 23 0
BBX 18 15 3 0
VVECTOR 13 15
SWIDTH1 0 -1188
DWIDTH1 0 -19
BITMAP 
073800
073800
000000
E001C0
E001C0
E001C0
E001C0
E001C0
E001C0
E001C0
E001C0
E001C0
E001C0
780780
1FFE00
ENDCHAR
STARTCHAR Yacute
ENCODING 221
SWIDTH 594 0
DWIDTH 19 0
BBX 17 15 1 0
VVECTOR 10 15
SWIDTH1 0 -1188
DWIDTH1 0 -19
BITMAP 
007800
01C000
000000
E00380
700700
380E00
1E3C00
077000
03E000
01C000
01C000
01C000
01C000
01C000
01C000
ENDCHAR
STARTCHAR Thorn
ENCODING 222
SWIDTH 625 0
DWIDTH 20 0
BBX 16 12 3 0
VVECTOR 12 15
SWIDTH1 0 -1188
DWIDTH1 0 -19
BITMAP 
E000
E000
E000
FFF8
E01E
E007
E007
E01E
FFF8
E000
E000
E000
ENDCHAR
STARTCHAR germandbls
ENCODING 223
SWIDTH 531 0
DWIDTH 17 0
BBX 14 12 2 0
VVECTOR 10 15
SWIDTH1 0 -1188
DWIDTH1 0 -19
BITMAP 
1FC0
78F0
E038
E038
E070
E3E0
E038
E01C
E01C
E01C
E078
E7E0
ENDCHAR
STARTCHAR agrave
ENCODING 224
SWIDTH 531 0
DWIDTH 17 0
BBX 16 11 1 0
VVECTOR 10 15
SWIDTH1 0 -1188
DWIDTH1 0 -19
BITMAP 
1E00
0380
0000
3FF0
703C
001C
3FFC
F01C
E01C
F07C
3FCF
ENDCHAR
STARTCHAR aacute
ENCODING 225
SWIDTH 531 0
DWIDTH 17 0
BBX 16 11 1 0
VVECTOR 10 15
SWIDTH1 0 -1188
DWIDTH1 0 -19
BITMAP 
00F0
0380
0000
3FF0
703C
001C
3FFC
F01C
E01C
F07C
3FCF
ENDCHAR
STARTCHAR acircumflex
ENCODING 226
SWIDTH 531 0
DWIDTH 17 0
BBX 16 11 1 0
VVECTOR 10 15
SWIDTH1 0 -1188
DWIDTH1 0 -19
BITMAP 
03C0
0E70
0000
3FF0
703C
001C
3FFC
F01C
E01C
F07C
3FCF
ENDCHAR
STARTCHAR atilde
ENCODING 227
SWIDTH 531 0
DWIDTH 17 0
BBX 16 11 1 0
VVECTOR 10 15
SWIDTH1 0 -1188
DWIDTH1 0 -19
BITMAP 
0F30
19E0
0000
3FF0
703C
001C
3FFC
F01C
E01C
F07C
3FCF
ENDCHAR
STARTCHAR adieresis
ENCODING 228
SWIDTH 531 0
DWIDTH 17 0
BBX 16 11 1 0
VVECTOR 10 15
SWIDTH1 0 -1188
DWIDTH1 0 -19
BITMAP 
0E70
0E70
0000
3FF0
703C
001C
3FFC
F01C
E01C
F07C
3FCF
ENDCHAR
STARTCHAR aring
ENCODING 229
SWIDTH 531 0
DWIDTH 17 0
BBX 16 13 1 0
VVECTOR 10 15
SWIDTH1 0 -1188
DWIDTH1 0 -19
BITMAP 
07C0
0C60
0C60
07C0
0000
3FF0
703C
001C
3FFC
F01C
E01C
F07C
3FCF
ENDCHAR
STARTCHAR ae
ENCODING 230
SWIDTH 875 0
DWIDTH 28 0
BBX 27 8 1 0
VVECTOR 15 15
SWIDTH1 0 -1188
DWIDTH1 0 -19
BITMAP 
3FF3FF00
703F01C0
001C00E0
3FFFFFE0
F01C0000
E01C00E0
F07F03C0
3FE7FF00
ENDCHAR
STARTCHAR ccedilla
ENCODING 231
SWIDTH 531 0
DWIDTH 17 0
BBX 15 12 1 -4
VVECTOR 9 15
SWIDTH1 0 -1188
DWIDTH1 0 -19
BITMAP 
0FF0
781C
E00E
E000
E000
E00E
781C
0FF0
0180
01E0
0030
03E0
ENDCHAR
STARTCHAR egrave
ENCODING 232
SWIDTH 562 0
DWIDTH 18 0
BBX 16 11 1 0
VVECTOR 9 15
SWIDTH1 0 -1188
DWIDTH1 0 -19
BITMAP 
0F00
01C0
0000
1FF8
780E
E007
FFFF
E000
E007
781E
1FF8
ENDCHAR
STARTCHAR eacute
ENCODING 233
SWIDTH 562 0
DWIDTH 18 0
BBX 16 11 1 0
VVECTOR 9 15
SWIDTH1 0 -1188
DWIDTH1 0 -19
BITMAP 
00F0
0380
0000
1FF8
780E
E007
FFFF
E000
E007
781E
1FF8
ENDCHAR
STARTCHAR ecircumflex
ENCODING 234
SWIDTH 562 0
DWIDTH 18 0
BBX 16 11 1 0
VVECTOR 9 15
SWIDTH1 0 -1188
DWIDTH1 0 -19
BITMAP 
03C0
0E70
0000
1FF8
780E
E007
FFFF
E000
E007
781E
1FF8
ENDCHAR
STARTCHAR edieresis
ENCODING 235
SWIDTH 562 0
DWIDTH 18 0
BBX 16 11 1 0
VVECTOR 9 15
SWIDTH1 0 -1188
DWIDTH1 0 -19
BITMAP 
0E70
0E70
0000
1FF8
780E
E007
FFFF
E000
E007
781E
1FF8
ENDCHAR
STARTCHAR igrave
ENCODING 236
SWIDTH 219 0
DWIDTH 7 0
BBX 6 11 0 0
VVECTOR 3 15
SWIDTH1 0 -1188
DWIDTH1 0 -19
BITMAP 
F0
1C
00
38
38
38
38
38
38
38
38
ENDCHAR
STARTCHAR iacute
ENCODING 237
SWIDTH 219 0
DWIDTH 7 0
BBX 6 11 1 0
VVECTOR 5 15
SWIDTH1 0 -1188
DWIDTH1 0 -19
BITMAP 
3C
E0
00
70
70
70
70
70
70
70
70
ENDCHAR
STARTCHAR icircumflex
ENCODING 238
SWIDTH 219 0
DWIDTH 7 0
BBX 7 11 0 0
VVECTOR 4 15
SWIDTH1 0 -1188
DWIDTH1 0 -19
BITMAP 
38
EE
00
38
38
38
38
38
38
38
38
ENDCHAR
STARTCHAR idieresis
ENCODING 239
SWIDTH 219 0
DWIDTH 7 0
BBX 7 11 0 0
VVECTOR 4 15
SWIDTH1 0 -1188
DWIDTH1 0 -19
BITMAP 
EE
EE
00
38
38
38
38
38
38
38
38
ENDCHAR
STARTCHAR eth
ENCODING 240
SWIDTH 562 0
DWIDTH 18 0
BBX 16 12 1 0
VVECTOR 9 15
SWIDTH1 0 -1188
DWIDTH1 0 -19
BITMAP 
7180
1E00
0FC0
30F0
0FFC
781E
E007
E007
E007
E007
781E
0FF0
ENDCHAR
STARTCHAR ntilde
ENCODING 241
SWIDTH 562 0
DWIDTH 18 0
BBX 14 11 2 0
VVECTOR 9 15
SWIDTH1 0 -1188
DWIDTH1 0 -19
BITMAP 
0F30
19E0
0000
EFE0
F878
E01C
E01C
E01C
E01C
E01C
E01C
ENDCHAR
STARTCHAR ograve
ENCODING 242
SWIDTH 562 0
DWIDTH 18 0
BBX 16 11 1 0
VVECTOR 9 15
SWIDTH1 0 -1188
DWIDTH1 0 -19
BITMAP 
0F00
01C0
0000
0FF0
781E
E007
E007
E007
E007
781E
0FF0
ENDCHAR
STARTCHAR oacute
ENCODING 243
SWIDTH 562 0
DWIDTH 18 0
BBX 16 11 1 0
VVECTOR 9 15
SWIDTH1 0 -1188
DWIDTH1 0 -19
BITMAP 
00F0
0380
0000
0FF0
781E
E007
E007
E007
E007
781E
0FF0
ENDCHAR
STARTCHAR ocircumflex
ENCODING 244
SWIDTH 562 0
DWIDTH 18 0
BBX 16 11 1 0
VVECTOR 9 15
SWIDTH1 0 -1188
DWIDTH1 0 -19
BITMAP 
03C0
0E70
0000
0FF0
781E
E007
E007
E007
E007
781E
0FF0
ENDCHAR
STARTCHAR otilde
ENCODING 245
SWIDTH 562 0
DWIDTH 18 0
BBX 16 11 1 0
VVECTOR 9 15
SWIDTH1 0 -1188
DWIDTH1 0 -19
BITMAP 
0798
0CF0
0000
0FF0
781E
E007
E007
E007
E007
781E
0FF0
ENDCHAR
STARTCHAR odieresis
ENCODING 246
SWIDTH 562 0
DWIDTH 18 0
BBX 16 11 1 0
VVECTOR 9 15
SWIDTH1 0 -1188
DWIDTH1 0 -19
BITMAP 
0E70
0E70
0000
0FF0
781E
E007
E007
E007
E007
781E
0FF0
ENDCHAR
STARTCHAR divide
ENCODING 247
SWIDTH 469 0
DWIDTH 15 0
BBX 12 8 2 0
VVECTOR 9 15
SWIDTH1 0 -1188
DWIDTH1 0 -19
BITMAP 
0600
0600
0000
FFF0
FFF0
0000
0600
0600
ENDCHAR
STARTCHAR oslash
ENCODING 248
SWIDTH 562 0
DWIDTH 18 0
BBX 16 8 1 0
VVECTOR 9 15
SWIDTH1 0 -1188
DWIDTH1 0 -19
BITMAP 
0FF3
781E
E037
E0C7
E307
EC07
781E
CFF0
ENDCHAR
STARTCHAR ugrave
ENCODING 249
SWIDTH 562 0
DWIDTH 18 0
BBX 14 11 2 0
VVECTOR 9 15
SWIDTH1 0 -1188
DWIDTH1 0 -19
BITMAP 
1E00
0380
0000
E01C
E01C
E01C
E01C
E01C
E01C
787C
1FDC
ENDCHAR
STARTCHAR uacute
ENCODING 250
SWIDTH 562 0
DWIDTH 18 0
BBX 14 11 2 0
VVECTOR 9 15
SWIDTH1 0 -1188
DWIDTH1 0 -19
BITMAP 
01E0
0700
0000
E01C
E01C
E01C
E01C
E01C
E01C
787C
1FDC
ENDCHAR
STARTCHAR ucircumflex
ENCODING 251
SWIDTH 562 0
DWIDTH 18 0
BBX 14 11 2 0
VVECTOR 9 15
SWIDTH1 0 -1188
DWIDTH1 0 -19
BITMAP 
0780
1CE0
0000
E01C
E01C
E01C
E01C
E01C
E01C
787C
1FDC
ENDCHAR
STARTCHAR udieresis
ENCODING 252
SWIDTH 562 0
DWIDTH 18 0
BBX 14 11 2 0
VVECTOR 9 15
SWIDTH1 0 -1188
DWIDTH1 0 -19
BITMAP 
1CE0
1CE0
0000
E01C
E01C
E01C
E01C
E01C
E01C
787C
1FDC
ENDCHAR
STARTCHAR yacute
ENCODING 253
SWIDTH 469 0
DWIDTH 15 0
BBX 15 15 0 -4
VVECTOR 8 15
SWIDTH1 0 -1188
DWIDTH1 0 -19
BITMAP 
00F0
0380
0000
E00E
701C
3838
1830
1C70
0EE0
07C0
0380
0380
0700
0E00
3800
ENDCHAR
STARTCHAR thorn
ENCODING 254
SWIDTH 594 0
DWIDTH 19 0
BBX 16 16 2 -4
VVECTOR 11 15
SWIDTH1 0 -1188
DWIDTH1 0 -19
BITMAP 
E000
E000
E000
E000
EFF8
F81E
E007
E007
E007
E007
F81E
EFF8
E000
E000
E000
E000
ENDCHAR
STARTCHAR ydieresis
ENCODING 255
SWIDTH 469 0
DWIDTH 15 0
BBX 15 15 0 -4
VVECTOR 8 15
SWIDTH1 0 -1188
DWIDTH1 0 -19
BITMAP 
0E70
0E70
0000
E00E
701C
3838
1830
1C70
0EE0
07C0
0380
0380
0700
0E00
3800
ENDCHAR
ENDFONT
